<svg xmlns="http://www.w3.org/2000/svg" viewBox="0 0 24 24"><defs><style>.cls-1{fill:#89bbc4;}</style></defs><title>developpement</title><path class="cls-1" d="M20.48 11a2.47 2.47 0 0 1 1.78.73 2.44 2.44 0 0 1 0 3.52 2.47 2.47 0 0 1-1.78.73h-1.48v4a2 2 0 0 1-2 2h-3.8v-1.5a2.54 2.54 0 0 0-.8-1.9 2.78 2.78 0 0 0-3.84 0 2.54 2.54 0 0 0-.8 1.9v1.52h-3.76a1.89 1.89 0 0 1-1.4-.6 1.89 1.89 0 0 1-.6-1.4v-3.8h1.5a2.54 2.54 0 0 0 1.9-.8 2.78 2.78 0 0 0 0-3.84 2.54 2.54 0 0 0-1.9-.8h-1.5v-3.76a1.89 1.89 0 0 1 .6-1.4 1.89 1.89 0 0 1 1.4-.6h4v-1.48a2.47 2.47 0 0 1 .73-1.78 2.44 2.44 0 0 1 3.52 0 2.47 2.47 0 0 1 .75 1.78v1.48h4a2 2 0 0 1 2 2v4z"/></svg>