<svg xmlns="http://www.w3.org/2000/svg" viewBox="0 0 40.99 40.99"><defs><style>.cls-1{fill:none;stroke:#fff;stroke-miterlimit:10;}.cls-2{fill:#fff;}</style></defs><title>mail</title><circle class="cls-1" cx="20.49" cy="20.49" r="20"/><path class="cls-2" d="M6.64 13.08l12.36 6.63a3.55 3.55 0 0 0 3 0l12.33-6.62c.8-.43 1.56-2.11.09-2.11h-27.87c-1.47.02-.71 1.67.09 2.1zm28 3.62l-12.64 6.63a2.8 2.8 0 0 1-1.49.33 2.8 2.8 0 0 1-1.51-.33l-12.67-6.63c-.64-.34-.63.06-.63.36v12a2 2 0 0 0 1.64 1.64h26.31a2 2 0 0 0 1.64-1.64v-12c0-.3.01-.69-.63-.36z"/></svg>