<svg xmlns="http://www.w3.org/2000/svg" viewBox="0 0 24 24"><defs><style>.cls-1{fill:#89bbc4;}</style></defs><title>design</title><path class="cls-1" d="M17.48 12a1.48 1.48 0 0 0 1.06-.42 1.53 1.53 0 0 0 0-2.16 1.53 1.53 0 0 0-2.11 0 1.53 1.53 0 0 0 0 2.16 1.48 1.48 0 0 0 1.05.42zm-3-4a1.52 1.52 0 0 0 1.52-1.48 1.5 1.5 0 1 0-2.56 1.05 1.44 1.44 0 0 0 1.04.43zm-5 0a1.52 1.52 0 0 0 1.52-1.48 1.49 1.49 0 0 0-2.54-1.06 1.47 1.47 0 0 0 0 2.11 1.44 1.44 0 0 0 1.06.43zm-3 4a1.48 1.48 0 0 0 1.05-.42 1.53 1.53 0 0 0 0-2.16 1.53 1.53 0 0 0-2.11 0 1.53 1.53 0 0 0 0 2.16 1.48 1.48 0 0 0 1.1.42zm5.52-9a9.26 9.26 0 0 1 6.35 2.34 7.3 7.3 0 0 1 2.65 5.66 4.75 4.75 0 0 1-1.48 3.52 4.87 4.87 0 0 1-3.52 1.48h-1.75a1.42 1.42 0 0 0-1.08.45 1.48 1.48 0 0 0-.42 1.06 1.55 1.55 0 0 0 .38 1 1.61 1.61 0 0 1 .38 1 1.44 1.44 0 0 1-1.51 1.49 8.68 8.68 0 0 1-6.37-2.62 8.68 8.68 0 0 1-2.63-6.38 8.68 8.68 0 0 1 2.63-6.37 8.68 8.68 0 0 1 6.37-2.63z"/></svg>