<?xml version="1.0" standalone="no"?>
<!DOCTYPE svg PUBLIC "-//W3C//DTD SVG 20010904//EN"
 "http://www.w3.org/TR/2001/REC-SVG-20010904/DTD/svg10.dtd">
<svg version="1.0" xmlns="http://www.w3.org/2000/svg"
 width="260.000000pt" height="260.000000pt" viewBox="0 0 260.000000 260.000000"
 preserveAspectRatio="xMidYMid meet">
<metadata>
Created by potrace 1.11, written by Peter Selinger 2001-2013
</metadata>
<g transform="translate(0.000000,260.000000) scale(0.100000,-0.100000)"
fill="#000000" stroke="none">
<path d="M0 1300 l0 -1300 1300 0 1300 0 0 1300 0 1300 -1300 0 -1300 0 0
-1300z m2550 0 l0 -1250 -1250 0 -1250 0 0 1250 0 1250 1250 0 1250 0 0 -1250z"/>
<path d="M1590 2305 c-30 -7 -73 -21 -95 -30 -75 -32 -209 -129 -299 -218
l-89 -88 -31 30 c-42 41 -95 61 -159 61 -140 0 -248 -93 -317 -272 -33 -84
-50 -200 -32 -212 20 -12 42 6 50 43 28 116 35 141 56 186 46 101 123 158 190
141 33 -8 71 -59 89 -121 l15 -51 -65 -103 c-124 -196 -248 -469 -308 -676
-43 -149 -58 -257 -53 -390 4 -103 8 -127 29 -170 29 -57 78 -95 121 -95 105
0 247 171 353 425 112 267 161 537 153 838 -4 141 -8 172 -30 237 l-26 75 69
68 c120 117 284 207 378 207 77 0 146 -43 183 -114 17 -32 23 -63 26 -146 5
-124 -12 -209 -59 -303 -33 -64 -106 -174 -132 -195 -8 -7 -52 -17 -98 -23
-105 -14 -177 -41 -213 -78 -35 -37 -33 -79 6 -100 37 -21 120 -3 211 44 90
46 115 46 160 -5 47 -51 68 -126 68 -239 0 -210 -78 -420 -199 -533 -72 -68
-105 -82 -187 -83 -53 0 -79 5 -105 21 -70 41 -105 133 -80 210 7 21 33 60 58
87 37 39 44 52 35 65 -20 32 -44 25 -93 -26 -138 -143 -86 -365 101 -425 67
-22 119 -21 214 3 194 50 387 210 475 396 44 92 64 177 63 279 0 119 -26 190
-97 260 -51 51 -146 105 -185 105 -36 0 -34 21 5 53 228 186 362 503 291 689
-24 62 -97 129 -173 158 -75 28 -198 35 -274 15z m-604 -880 c-8 -275 -53
-556 -122 -765 -55 -167 -112 -245 -171 -238 -44 5 -64 45 -70 139 -15 245
116 692 301 1027 l51 92 8 -42 c5 -24 6 -119 3 -213z"/>
</g>
</svg>
