<?xml version="1.0" encoding="utf-8"?>
<!-- Generator: Adobe Illustrator 21.0.2, SVG Export Plug-In . SVG Version: 6.00 Build 0)  -->
<svg version="1.1" id="Calque_1" xmlns="http://www.w3.org/2000/svg" xmlns:xlink="http://www.w3.org/1999/xlink" x="0px" y="0px"
	 viewBox="0 0 355 55" style="enable-background:new 0 0 355 55;" xml:space="preserve">
<style type="text/css">
	.st0{enable-background:new    ;}
	.st1{fill:#F2F2F2;}
</style>
<title>logo</title>
<g class="st0">
	<path class="st1" d="M32.6,32.1c-0.7,1.3-3.1,5.7-8.8,5.9c-3.4,0.1-6.4-1.2-9.2-2.6c-0.9,0.6-1.7,1.2-2.6,1.5
		C10.1,37.7,8.2,38,6.3,38c-1.8,0-3.4-0.3-4.5-1s-1.6-1.7-1.6-2.7c0-1,0.5-2.1,1.5-2.7c1.2-0.7,3-1.1,4.9-1.1c1.4,0,3,0.2,4.3,0.5
		c0.8,0.2,1.7,0.5,2.6,0.8c0.2-0.5,0.4-1,0.6-1.5c0.6-1.9,1-3.9,1.3-5.9c-0.6,0-1.2,0.1-1.7,0.1s-1.2,0-1.7-0.1
		c-6.2-0.4-9.8-3.8-9.7-7.6c0.2-4.9,5.4-7.9,6.9-8.5c0.7-0.2,1.2-0.2,1.5,0c0.4,0.2,0.3,0.8-0.5,1.4c-1.7,1.2-4,3.8-4,7.1
		c0,0.5,0,1,0.1,1.4c0.6,2.9,4.1,5.4,9.3,4.9c0.5-3.9,1-8,2.5-12.1c2.6-6.8,7.2-11.3,11-10.3c2.1,0.6,3.6,3.1,3.6,6.4
		c0,2.5-0.8,5.5-2.8,8.5c-2.5,3.8-5.7,6.1-8.9,7.4c-0.1,2-0.4,3.4-0.8,4.5c-0.6,1.7-1.8,3.8-3.3,5.6c2.1,0.9,4.1,1.6,5.2,2
		c0.9,0.3,1.9,0.5,3,0.5c1.2,0,2.5-0.2,3.4-0.9c1.5-1.1,2.3-2.4,2.9-3.3c0.4-0.6,1-0.7,1.2-0.2C32.8,31.4,32.8,31.7,32.6,32.1z
		 M6.7,32.3c-2.7-0.3-5.1,0.5-5.1,2c0,1.5,1.8,2.3,4.3,2.3c1.7,0,4.2-0.2,6.2-2.4C10.7,33.5,8.8,32.5,6.7,32.3z M22.9,8
		c-0.8,2.8-1.3,7.5-1.5,11.4c0,0.7-0.1,1.3-0.1,2c0.3-0.1,0.7-0.3,1.1-0.5c5.6-3,8.5-10,8.5-14.6c0-2.3-0.7-3.9-2.2-4.2
		C25.6,1.5,23.4,5.8,22.9,8z"/>
	<path class="st1" d="M50,36.1c-0.8,0.8-2.2,1.9-4.1,1.6c-1.7-0.2-2.7-1.6-3-3.8c-1.7,2.7-4.8,4.3-7.5,3.8c-2-0.4-4.1-2.4-4.1-5.7
		c0-1.2,0.3-2.7,1.1-4.2c2-4.2,5.7-5.9,8.3-5.9c0.8,0,1.5,0.1,2.1,0.5c1,0.6,1.5,1.3,1.8,1.9c0.3-0.7,0.6-1.2,0.8-1.5
		c0.7-0.7,1.2-0.8,1.8-0.7c0.6,0,1.3,0.2,1.2,0.7c-0.3,1.3-1.2,4-1.6,6.5c-0.3,1.5-0.6,3.6-0.6,5c0,1,0.1,1.6,0.5,1.8
		c1,0.5,2.5-0.9,3.5-2c0.8-1,1.3-1.9,1.6-2.5s1.4-0.4,0.9,0.7C52.1,33.3,51,35.2,50,36.1z M41.7,23.5c-3.1-0.9-4.9,3.6-5.6,6.3
		c-0.4,1.4-0.7,3-0.7,4.2c0,1.2,0.3,2.2,1.2,2.4c2,0.6,3.9-1.4,5.1-3.3c0.5-0.8,0.9-1.6,1.2-2.3c0.1-1.4,0.5-2.8,0.9-4.2
		C43.7,25.5,43.3,23.9,41.7,23.5z"/>
	<path class="st1" d="M81.8,38.2c-0.5,0-1,0-1.4-0.2c-3.6-1-4.2-4.5-3.6-6.1c0.6-1.9,1.8-2.7,2.3-3c0.2-0.1,0.8,0,1,0.2
		c0.2,0.2,0.2,0.6-0.3,0.9c-1,0.8-1.4,1.4-1.6,2.3c-0.2,0.8-0.2,3.4,2,4.1c0.5,0.2,1.1,0.3,1.6,0.3c3.1,0,5.7-3.4,6.9-7.6
		c0.4-1.5,0.6-3,0.6-4.4c0-2.9-1-5-2.5-5.4c-0.8-0.1-1.5,0.8-2.9,1.2c-0.7,0.2-1.6,0.5-2.3,0.5c-0.7,0-1.2-0.2-1.3-0.9
		c-0.3-1.3,1.5-2.1,2.6-2.4s2.6-0.4,3.2-0.5c0.5-0.1,0.5-0.2,0.9-0.6c0.4-0.4,2.8-3.4,3.3-6.5c0.1-0.8,0.2-1.6,0.2-2.4
		c0-2.4-0.7-4.5-3-5.1c-2.2-0.6-5.9,0.8-9.6,5.2c0.8,1.7,1.2,4,1.2,6.8c0,1.8-0.2,3.8-0.5,6C77,29.7,71.9,38.8,68.6,38
		c-1.7-0.4-2.7-2.4-2.7-5.6c0-2.3,0.5-5.1,1.6-8.4c1.6-4.8,3.9-9.4,6.7-13.5c-0.4-2.1-1.2-3.4-2.4-3.4c-3,0-4.2,5-4.2,6
		c0,0.6-0.4,1.2-0.8,1.2c-0.3,0-0.5-0.1-0.5-0.8c0-1.5,1.7-8.6,6.8-8.6c1.7,0,2.9,0.7,3.8,1.9c3.6-4.2,7.4-6.7,11.4-6.7
		c1,0,1.9,0.1,2.9,0.5c3,1,3.9,3.1,3.9,5.3c0,1.9-0.7,3.9-1.4,5.4c-1.6,3-4.2,5.5-4.8,5.9c-0.7,0.4-0.4,0.6,0.1,0.7
		c0.4,0,5.7,1.3,5.7,7c0,0.8-0.1,1.7-0.3,2.7C92.6,34.4,85.9,38.2,81.8,38.2z M68.9,24.7c-1,3.3-1.4,6.3-1.4,8.4
		c0,2,0.4,3.2,1.2,3.4c2.7,0.6,4.8-8.4,5.5-15c0.2-1.9,0.3-3.8,0.3-5.7c0-1.3-0.1-2.5-0.2-3.7C72,16.1,70.2,20.3,68.9,24.7z"/>
	<path class="st1" d="M109.3,36.7c-1.7,0.8-3.6,1.2-5.3,1.2c-1.9,0-3.6-0.5-5-1.4c-2.7-1.7-3.1-4.2-2.8-6c0.5-3.8,3.1-6,5.5-7.3
		c1.2-0.7,3.1-1.2,4.8-1.2c1.5,0,2.9,0.4,3.6,1.6c0.3,0.5,0.5,1,0.5,1.6c0,2.2-2.2,4.7-5.7,6.4c-1.9,1-3.6,1.4-4.5,1.6
		c0.3,1.7,1.2,2.5,2.2,2.9c0.8,0.3,1.4,0.5,2.2,0.5c1.2,0,2.5-0.4,4.2-1.3c2.2-1.1,3.7-3.3,4-4c0.2-0.3,0.6-0.3,0.8-0.1
		c0.2,0.2,0.2,0.6,0,1.1C113.2,33.3,112.2,35.2,109.3,36.7z M100.6,29c-0.3,1.1-0.4,2-0.4,2.8c1.1-0.1,2.9-0.6,4.4-1.8
		c1.4-1.2,2.4-3.4,2.4-4.9c0-0.7-0.2-1.3-0.8-1.6C104.4,22.8,101.6,24.6,100.6,29z"/>
	<path class="st1" d="M129.7,29c-0.6,0.8-1.6,1.6-2.6,1.9c-0.6,0.1-1.1,0.2-1.6,0.2c-0.8,0-1.5-0.2-2.1-0.5c-1.2-0.7-2-2.3-1.9-4.1
		c0-0.8-0.1-0.6-0.5-0.2c-0.3,0.4-1.4,1.8-2.6,4.1c-1.2,2.4-2.2,6-2.4,6.4c-0.2,0.5-0.7,0.6-1.8,0.6c-1.1,0-1.9-0.1-1.9-0.7
		c0-0.6,0.3-4.2,0.8-7.1c0.5-3.2,1.5-6.8,1.7-7.1c0.2-0.3,0.9-0.5,1.8-0.4c0.9,0,1.5,0.5,1.4,1c-0.1,0.5-0.4,2.4-0.6,3.6
		c-0.2,1.2-0.3,2.5-0.4,2.9c0,0.2,0.1,0.3,0.2,0.2c0.1-0.1,0.2-0.2,0.3-0.4c0.3-0.5,1.5-2.7,2.5-4.2c1.1-1.6,1.9-2.5,2.2-2.7
		c0.4-0.2,2.3-0.9,3-0.4c0.9,0.7,0.2,2.3-0.2,3.3c-0.4,1-1.4,3.1-0.7,3.9c0.4,0.5,1.3,0.7,2.4,0.4c0.9-0.2,1.8-0.9,2.3-1.6
		c0.2-0.3,0.6-0.1,0.8,0C130,28.4,129.9,28.7,129.7,29z"/>
	<path class="st1" d="M144.5,36.1c-0.9,0.8-2,1.4-3.3,2c-1.1,5.2-2.1,9.3-3.3,11.6c-1.2,2.4-3.6,4.7-6.2,4.7c-0.5,0-1,0-1.4-0.2
		c-1.6-0.6-2.4-2-2.4-3.8c0-1.2,0.4-2.5,1.2-3.9c1.7-2.8,5.3-6,8.8-7.8c0.1-0.6,0.2-1.2,0.3-1.7c0.1-0.6,0.2-1.3,0.4-1.9
		c-1.3,1.3-3.6,3-6.2,2.8c-2.9-0.3-4.4-2.5-4.4-5.7c0-0.7,0-1.4,0.2-2.1c0.8-4.4,5.5-8.3,9.3-7.8c1.8,0.2,2.8,1.2,3.3,2.1
		c0.6-0.6,1.3-1.3,1.8-1.7c0.7-0.7,2.3-0.8,2,0.6c-0.3,1.3-1.4,6-2.7,12.4c-0.1,0.4-0.2,0.9-0.3,1.3c1.8-1,2.5-1.6,3.2-2.3
		c1-0.9,1.6-2,2-2.6c0.3-0.7,1.3-0.4,0.9,0.6C147.1,33.5,146,34.8,144.5,36.1z M135.6,41.1c-2.4,1.7-4.5,3.9-5.5,6.6
		c-0.4,1.1-0.6,2.1-0.6,2.9c0,1.2,0.5,2.1,1.4,2.4c1.6,0.4,3.4-1,4.4-4.3c0.8-2.4,1.6-5.8,2.2-8.8C136.9,40.3,136.2,40.7,135.6,41.1
		z M138.1,23.5c-2.3-0.4-4.4,1.8-5.5,6.1c-0.5,1.9-0.8,3.4-0.8,4.5c0,1.5,0.5,2.3,1.5,2.4c1.6,0.1,3.7-1.1,5.8-4.4
		c0.4-2.5,0.8-4.7,1-6C139.8,24.9,139.3,23.8,138.1,23.5z"/>
	<path class="st1" d="M159.5,36.7c-1.7,0.8-3.6,1.2-5.3,1.2c-1.9,0-3.6-0.5-5-1.4c-2.7-1.7-3.1-4.2-2.8-6c0.5-3.8,3.1-6,5.5-7.3
		c1.2-0.7,3.1-1.2,4.8-1.2c1.5,0,2.9,0.4,3.6,1.6c0.3,0.5,0.5,1,0.5,1.6c0,2.2-2.2,4.7-5.7,6.4c-1.9,1-3.6,1.4-4.5,1.6
		c0.3,1.7,1.2,2.5,2.2,2.9c0.8,0.3,1.4,0.5,2.2,0.5c1.2,0,2.5-0.4,4.2-1.3c2.2-1.1,3.7-3.3,4-4c0.2-0.3,0.6-0.3,0.8-0.1
		c0.2,0.2,0.2,0.6,0,1.1C163.4,33.3,162.4,35.2,159.5,36.7z M150.8,29c-0.3,1.1-0.4,2-0.4,2.8c1.1-0.1,2.9-0.6,4.4-1.8
		c1.4-1.2,2.4-3.4,2.4-4.9c0-0.7-0.2-1.3-0.8-1.6C154.7,22.8,151.8,24.6,150.8,29z"/>
	<path class="st1" d="M180,29c-0.6,0.8-1.6,1.6-2.6,1.9c-0.6,0.1-1.1,0.2-1.6,0.2c-0.8,0-1.5-0.2-2.1-0.5c-1.2-0.7-2-2.3-1.9-4.1
		c0-0.8-0.1-0.6-0.5-0.2c-0.3,0.4-1.4,1.8-2.6,4.1c-1.2,2.4-2.2,6-2.4,6.4c-0.2,0.5-0.7,0.6-1.8,0.6c-1.1,0-1.9-0.1-1.9-0.7
		c0-0.6,0.3-4.2,0.8-7.1c0.5-3.2,1.5-6.8,1.7-7.1c0.2-0.3,0.9-0.5,1.8-0.4c0.9,0,1.5,0.5,1.4,1c-0.1,0.5-0.4,2.4-0.6,3.6
		c-0.2,1.2-0.3,2.5-0.4,2.9c0,0.2,0.1,0.3,0.2,0.2c0.1-0.1,0.2-0.2,0.3-0.4c0.3-0.5,1.5-2.7,2.5-4.2c1.1-1.6,1.9-2.5,2.2-2.7
		c0.4-0.2,2.3-0.9,3-0.4c0.9,0.7,0.2,2.3-0.2,3.3c-0.4,1-1.4,3.1-0.7,3.9c0.4,0.5,1.3,0.7,2.4,0.4c0.9-0.2,1.8-0.9,2.3-1.6
		c0.2-0.3,0.6-0.1,0.8,0C180.3,28.4,180.2,28.7,180,29z"/>
	<path class="st1" d="M186,36c-0.8,0.7-2.4,1.9-4.4,1.6c-1.8-0.3-3.2-2.4-3.2-5.5c0-0.8,0.1-1.6,0.3-2.5c0.7-3.3,1.5-6.1,2.1-6.8
		c0.6-0.7,1.1-0.8,1.6-0.7c0.6,0,1.2,0.3,1.4,0.8c0.4,0.8-0.8,4.2-1.2,6.6c-0.3,1.6-0.7,3.6-0.7,5c0,0.8,0.1,1.4,0.5,1.5
		c1,0.5,2.5-0.6,3.5-1.7c0.9-1,1.5-2.1,1.9-2.8c0.1-0.4,0.5-0.5,0.7-0.3c0.2,0.1,0.3,0.5,0.1,1C188.2,33.3,187,35,186,36z
		 M183.1,16.9c-1.2-0.3-1.8-1.5-1.5-2.8c0.3-1.3,1.5-2.1,2.6-1.8c1.2,0.2,1.8,1.5,1.5,2.8C185.4,16.4,184.2,17.2,183.1,16.9z"/>
	<path class="st1" d="M200.5,36.7c-1.7,0.8-3.6,1.2-5.3,1.2c-1.9,0-3.6-0.5-5-1.4c-2.7-1.7-3.1-4.2-2.8-6c0.5-3.8,3.1-6,5.5-7.3
		c1.2-0.7,3.1-1.2,4.8-1.2c1.5,0,2.9,0.4,3.6,1.6c0.3,0.5,0.5,1,0.5,1.6c0,2.2-2.2,4.7-5.7,6.4c-1.9,1-3.6,1.4-4.5,1.6
		c0.3,1.7,1.2,2.5,2.2,2.9c0.8,0.3,1.4,0.5,2.2,0.5c1.2,0,2.5-0.4,4.2-1.3c2.2-1.1,3.7-3.3,4-4c0.2-0.3,0.6-0.3,0.8-0.1
		c0.2,0.2,0.2,0.6,0,1.1C204.5,33.3,203.5,35.2,200.5,36.7z M191.9,29c-0.3,1.1-0.4,2-0.4,2.8c1.1-0.1,2.9-0.6,4.4-1.8
		c1.4-1.2,2.4-3.4,2.4-4.9c0-0.7-0.2-1.3-0.8-1.6C195.7,22.8,192.9,24.6,191.9,29z"/>
	<path class="st1" d="M236.6,35.7c-1,0.9-2.6,2.3-4.6,1.9c-1.3-0.3-2.4-1.6-2.7-3.6c-1.9,2.5-4.7,4-7,3.9c-2.3-0.1-4.9-2.2-4.9-5.9
		c0-0.7,0.1-1.4,0.3-2.2c1.4-5.8,6.8-8.4,9.8-7.9c1.4,0.3,2.4,1.1,3,1.9c0.6-3.3,1.8-9.3,2.6-13.6c0.1-0.5,0.1-0.7,0.6-0.9
		c0.4-0.1,1-0.2,1.4-0.3c0.4,0,1,0,1.3,0.1c0.7,0.2,0.5,0.7,0.4,1.2c-0.3,2-1.4,6.8-2.5,12.9c-1,5.2-1.7,9.3-1.7,11.4
		c0,0.9,0.1,1.4,0.5,1.6c1,0.4,2.1-0.7,2.9-1.6c0.7-0.7,1.6-2.3,1.9-2.9c0.2-0.6,1.2-0.3,0.8,0.5C238.4,33.3,237.6,34.8,236.6,35.7z
		 M227.6,23.3c-2.6-0.5-4.4,2.5-5.5,6.6c-0.3,1.3-0.5,2.4-0.5,3.4c0,2,0.7,3.1,1.6,3.3c1.4,0.2,3.2-0.8,4.8-2.7
		c0.7-0.8,1.2-1.7,1.5-2.6c0.2-1.3,0.4-3,0.7-4.7C229.9,25.3,229.4,23.6,227.6,23.3z"/>
	<path class="st1" d="M251.2,36.7c-1.7,0.8-3.6,1.2-5.3,1.2c-1.9,0-3.6-0.5-5-1.4c-2.7-1.7-3.1-4.2-2.8-6c0.5-3.8,3.1-6,5.5-7.3
		c1.2-0.7,3.1-1.2,4.8-1.2c1.5,0,2.9,0.4,3.6,1.6c0.3,0.5,0.5,1,0.5,1.6c0,2.2-2.2,4.7-5.7,6.4c-1.9,1-3.6,1.4-4.5,1.6
		c0.3,1.7,1.2,2.5,2.2,2.9c0.8,0.3,1.4,0.5,2.2,0.5c1.2,0,2.5-0.4,4.2-1.3c2.2-1.1,3.7-3.3,4-4c0.2-0.3,0.6-0.3,0.8-0.1
		c0.2,0.2,0.2,0.6,0,1.1C255.1,33.3,254.1,35.2,251.2,36.7z M242.5,29c-0.3,1.1-0.4,2-0.4,2.8c1.1-0.1,2.9-0.6,4.4-1.8
		c1.4-1.2,2.4-3.4,2.4-4.9c0-0.7-0.2-1.3-0.8-1.6C246.3,22.8,243.5,24.6,242.5,29z"/>
</g>
<g class="st0">
	<path class="st1" d="M310.9,31.8c-0.8,1.6-2.1,3.3-3,4.2s-2.8,2.3-5,1.8c-2.5-0.5-3.3-3.3-3.3-6.4c0-0.5,0-1.1,0-1.6
		c0.3-3.8,2.7-12.6,3.3-15.3c0.3-1.2,0.6-2.5,0.6-3.6c0-1.2-0.4-2-1.5-2.1c-1.7,0-4.5,3.7-6.1,6.5c-0.7,1.2-1.5,3-2.3,4.8
		c-0.3,2.4-0.7,4.8-1,6.2c-0.6,3.3-1.5,9.5-1.7,10.1c-0.1,0.7-0.6,1-1.1,1s-2.4,0.2-2.9,0.1c-0.5-0.1-1.3-0.2-0.9-1.4
		c0.3-1.2,2-8.7,3.1-14.4c0.7-3.8,1.8-8.8,1.8-12c0-1.5-0.2-2.5-0.9-2.8c-1.8-0.8-4.4,2.4-5.9,5.3c-1.1,2-2.5,5.5-3.6,8.2
		c-1.3,6.5-2.9,14.6-3.1,15.2c-0.2,0.9-0.6,1.4-1.2,1.5c-0.6,0-2.9,0-3.5,0c-0.6,0-1.1-0.3-0.5-1.9c0.6-1.6,3-10.8,4.3-17.3
		c0.7-3.3,1.4-7.1,1.4-10.1c0-2.9-0.7-5.2-2.7-5.9c-0.6-0.2-1.2-0.3-1.9-0.3c-3.4,0-7.2,2.6-8.4,6.3c-0.4,1.2-0.6,2.3-0.6,3.2
		c0,2.4,1.2,3.6,2.7,4c2.1,0.5,3.9-0.9,4.5-1.5c0.2-0.2,0.4-0.3,0.6-0.3c0.3,0,0.5,0.3,0.6,1c0.1,1.3-1.2,5.4-5.4,5.4
		c-3.7,0-6.2-3.1-6.2-7.1c0-2.3,0.8-4.8,2.6-7.3c2.7-3.5,7.2-5.4,11.1-5.4c1.4,0,2.8,0.3,4,0.8c2.8,1.3,3.6,4.2,3.6,7.2
		c0,1.7-0.3,3.4-0.5,4.9c0,0.3-0.1,0.6-0.2,1c0.6-1.1,1.2-2.2,1.7-3.1c2-3.2,4.8-6.2,7.7-5.6c2.8,0.7,3.4,3.4,3.3,6.4
		c0,0.9-0.2,2.4-0.4,3.9c0.5-0.9,1-1.7,1.4-2.3c1.5-2.3,4.1-6.6,8.1-5.8c3.8,0.8,3.8,5.3,3.7,7c-0.2,4.4-2.4,11.3-3.2,14.5
		c-0.4,1.7-1,3.8-1,5.3c0,1,0.2,1.6,0.8,1.8c1.4,0.4,2.7-0.8,3.9-2.1c1-1.1,1.9-2.8,2.2-3.3c0.2-0.3,0.7-0.5,1-0.3
		C311,30.7,311.2,31.1,310.9,31.8z"/>
	<path class="st1" d="M321.7,36.7c-1.7,0.8-3.6,1.2-5.3,1.2c-1.9,0-3.6-0.5-5-1.4c-2.7-1.7-3.1-4.2-2.8-6c0.5-3.8,3.1-6,5.5-7.3
		c1.2-0.7,3.1-1.2,4.8-1.2c1.5,0,2.9,0.4,3.6,1.6c0.3,0.5,0.5,1,0.5,1.6c0,2.2-2.2,4.7-5.7,6.4c-1.9,1-3.6,1.4-4.5,1.6
		c0.3,1.7,1.2,2.5,2.2,2.9c0.8,0.3,1.4,0.5,2.2,0.5c1.2,0,2.5-0.4,4.2-1.3c2.2-1.1,3.7-3.3,4-4c0.2-0.3,0.6-0.3,0.8-0.1
		c0.2,0.2,0.2,0.6,0,1.1C325.7,33.3,324.7,35.2,321.7,36.7z M313.1,29c-0.3,1.1-0.4,2-0.4,2.8c1.1-0.1,2.9-0.6,4.4-1.8
		c1.4-1.2,2.4-3.4,2.4-4.9c0-0.7-0.2-1.3-0.8-1.6C316.9,22.8,314.1,24.6,313.1,29z M317.7,20.4l-1.5,0l3.6-6
		c0.9-1.4,1.9-1.6,2.7-1.2c0.8,0.4,1.2,1.4,0.6,2L317.7,20.4z"/>
	<path class="st1" d="M334.4,35.8c-1.3,1.2-3.3,2.3-5.5,1.8c-2.3-0.5-3.4-3.7-3.4-8.4c0-2.5,0.3-5.5,1-8.8
		c1.9-9.1,4.8-17.4,8.5-16.9c1.6,0.2,2.2,2.1,2.2,4.4c0,2.9-0.9,6.5-1.3,8.1c-0.8,2.6-3.9,8.8-6.3,11.7c0,1-0.1,2-0.1,2.9
		c0,2.9,0.3,5,1.1,5.2c1.5,0.5,2.9-0.8,3.8-1.7s1.8-2.4,2.2-3.2c0.2-0.3,0.4-0.4,0.6-0.3c0.2,0.2,0.3,0.7,0.1,1.2
		C336.8,32.9,335.8,34.6,334.4,35.8z M330.3,20c-0.2,1.7-0.5,3.4-0.6,5.1c1.5-1.8,3.4-4.9,4.9-9.5c1-2.9,1.4-5.7,1.4-7.7
		c0-1.7-0.3-2.9-1.1-3.1C333.4,4.3,331.3,12.9,330.3,20z"/>
	<path class="st1" d="M353.8,32.7c-0.6,1.3-2.9,3.8-6,5.5c-0.1,0.4-0.1,0.9-0.2,1.3c-1,6.4-2.4,9.9-4,12.2c-1.2,1.7-3.3,3.1-5.1,3.1
		c-0.6,0-1.2-0.1-1.8-0.5c-1.2-0.7-1.7-2.1-1.7-3.6c0-1.5,0.5-3.3,1.5-4.9c1.7-2.8,4.8-5.3,7.9-7.1c0.5-3.1,0.9-5.6,1-5.9
		s0-0.4,0-0.4c-0.1,0-0.2,0.1-0.3,0.3c-0.4,0.7-3.4,5.5-6.9,5c-2.4-0.4-3.2-2.6-3.2-5.2c0-1.2,0.2-2.4,0.4-3.6
		c0.7-3.2,1.7-6.2,2.2-6.5c0.4-0.3,0.7-0.4,1.4-0.4s1.6,0.5,1.5,1.2c-0.1,0.6-1.2,4.9-1.5,6.6c-0.2,1.2-0.8,3.4-0.8,4.9
		c0,0.8,0.1,1.4,0.5,1.5c1.1,0.5,3.3-0.5,5.3-3.9c2.1-3.4,2.8-8.6,2.8-9.1c0-0.5,0.7-1,1.7-0.9c1,0,2,0.1,1.9,1
		c-0.1,0.8-1.4,7.9-2.3,13.4c2.4-1.5,4-3.4,4.8-4.8c0.4-0.8,0.9-0.9,1.1-0.6C354,31.7,354,32.1,353.8,32.7z M337.6,46.9
		c-0.8,1.7-1.2,3.2-1.2,4.3c0,1.2,0.4,1.9,1,2.2c1.5,0.6,4-0.5,5.2-6c0.5-2.1,1-4.7,1.4-7.1C341.2,41.9,338.8,44.2,337.6,46.9z"/>
</g>
</svg>
